<?xml version="1.0" encoding="UTF-8"?>
<svg width="200px" height="140px" viewBox="0 0 200 140" version="1.1" xmlns="http://www.w3.org/2000/svg" xmlns:xlink="http://www.w3.org/1999/xlink">
    <title>Fixed Logo/HBO</title>
    <g id="Fixed-Logo/HBO" stroke="none" stroke-width="1" fill="none" fill-rule="evenodd">
        <g id="HBO_black_0" transform="translate(42.014051, 46.231963)" fill="#FFFFFF" fill-rule="nonzero">
            <g id="HBO_black_0">
                <path d="M33.93361,47.5961149 L21.2624814,47.5961149 L21.2624814,29.4375955 L13.0284812,29.4375955 L13.0284812,47.5961149 L0,47.5961149 L0,0.796114945 L13.0284812,0.796114945 L13.0284812,18.2079848 L21.2624814,18.2079848 L21.2624814,0.796114945 L33.93361,0.796114945 L33.93361,47.5961149 Z M92.2873582,47.9251682 C105.469731,47.8019961 116.090701,37.0633184 116.090701,23.8592687 C116.111866,12.7248661 108.426461,3.06234704 97.5863077,0.594568929 C86.7461545,-1.87320918 75.6458881,3.51272195 70.859906,13.5624161 C70.859906,7.71057116 65.1070685,0.796114945 58.3680302,0.78114859 L36.6716142,0.78114859 L36.6716142,47.6857065 L56.9036715,47.6857065 C65.0622412,47.6857065 70.859906,40.6066204 70.8748485,34.5302801 C74.8663049,42.7473808 83.17892,47.972855 92.3023006,48 M55.2405675,28.843065 C57.1939416,29.1598438 58.6283773,30.8365511 58.6283773,32.803065 C58.6283773,34.769579 57.1939416,36.4462863 55.2405675,36.763065 L48.7611573,36.763065 L48.7611573,28.843065 L55.2405675,28.843065 Z M55.2706316,11.2276647 C57.2203518,11.5633131 58.6433026,13.2340617 58.6433026,15.1876647 C58.6433026,17.1412677 57.2203518,18.8120162 55.2706316,19.1476647 L48.7760827,19.1476647 L48.7760827,11.2276647 L55.2706316,11.2276647 Z M63.7312718,23.846639 C65.5802241,23.3291289 67.2439516,22.3008486 68.529648,20.8809639 C68.2018121,23.0286468 68.2018121,25.2132811 68.529648,27.3609639 C67.3876557,25.6591294 65.6858038,24.4060682 63.71637,23.8169823 M80.298447,23.751218 C80.298447,17.1900751 85.6320175,11.871218 92.2113101,11.871218 C98.7906027,11.871218 104.124173,17.1900751 104.124173,23.751218 C104.124173,30.3123608 98.7906027,35.631218 92.2113101,35.631218 C85.6320175,35.631218 80.298447,30.3123608 80.298447,23.751218 M92.2664023,33.1501603 C97.4500738,33.1501603 101.65227,28.9663144 101.65227,23.8052789 C101.65227,18.6442434 97.4500738,14.4603975 92.2664023,14.4603975 C87.0827308,14.4603975 82.8804856,18.6442434 82.8804856,23.8052789 C82.872413,26.3044304 83.8700679,28.7026889 85.6506117,30.4642552 C87.4311555,32.2258214 89.8462085,33.203897 92.3562192,33.1799685" id="Shape"></path>
            </g>
        </g>
    </g>
</svg>