<?xml version="1.0" encoding="UTF-8"?>
<svg width="200px" height="140px" viewBox="0 0 200 140" version="1.1" xmlns="http://www.w3.org/2000/svg" xmlns:xlink="http://www.w3.org/1999/xlink">
    <title>Fixed Logo/Hilton</title>
    <g id="Fixed-Logo/Hilton" stroke="none" stroke-width="1" fill="none" fill-rule="evenodd">
        <g id="WW" transform="translate(31.000000, 42.000000)" fill="#FFFFFF" fill-rule="nonzero">
            <path d="M137,0 L137,51 L0,51 L0,0 L137,0 Z M134.334123,2.33930024 L2.33412334,2.33930024 L2.33412334,48.3393002 L134.334123,48.3393002 L134.334123,2.33930024 Z" id="Fill-1"></path>
            <polygon id="Fill-2" points="37.0860572 14.5980524 37.0860572 38.3618935 39 38.6078662 39 40 29.5173796 40 29.5173796 38.6078662 31.5585314 38.3618935 31.5585314 27.5442286 19.4404129 27.5442286 19.4404129 38.3618935 21.3116007 38.6078662 21.3116007 40 12 40 12 38.6078662 13.87066 38.3618935 13.87066 14.5980524 12 14.3520797 12 13 21.3116007 13 21.3116007 14.3520797 19.4404129 14.5980524 19.4404129 24.7589342 31.5585314 24.7589342 31.5585314 14.5980524 29.5173796 14.3520797 29.5173796 13 39 13 39 14.3520797"></polygon>
            <polygon id="Fill-3" points="50.1567251 38.4660199 52 38.7215051 52 40 43 40 43 38.7215051 44.8454551 38.4660199 44.8454551 21.5339801 43 21.2800984 43 20 50.1567251 20"></polygon>
            <polygon id="Fill-4" points="55 38.8066186 56.8005449 38.5688665 56.8005449 14.4301064 55 14.1913275 55 13 62.1564033 13 62.1564033 38.5688665 64 38.8066186 64 40 55 40"></polygon>
            <g id="Group-15" transform="translate(44.000000, 12.000000)">
                <path d="M29.8390125,8.50141998 L34.5119738,8.50141998 L34.5119738,10.3072728 L29.8390125,10.3072728 L29.8390125,21.7602897 C29.8390125,24.7160231 30.4741007,25.6606231 33.2359953,25.6606231 C34.2572001,25.6606231 35.1512818,25.6606231 36,25.4543135 L36,26.7678012 C33.4923516,27.6305976 31.3671273,28 29.5826564,28 C25.5890917,28 24.6538665,26.2353062 24.6538665,22.8674679 L24.6538665,10.3072728 L21,10.3072728 L21,8.50141998 L24.782572,8.50141998 L24.782572,4.47915295 L29.8390125,3 L29.8390125,8.50141998 Z" id="Fill-5"></path>
                <path d="M58,18.1614656 C58,24.0490208 53.8529743,28 47.3320904,28 C41.022473,28 37,25.4185724 37,18.1614656 C37,12.0722678 41.1496534,8 47.6700118,8 C54.106284,8 58,11.6704991 58,18.1614656 M52.6726644,17.9923749 C52.6726644,12.0573745 50.743642,9.45142135 47.6280313,9.45142135 C44.6044084,9.45142135 42.6726644,11.93778 42.6726644,17.9923749 C42.6726644,23.9660677 44.6044084,26.4514214 47.6280313,26.4514214 C50.8753642,26.4514214 52.6726644,24.0866672 52.6726644,17.9923749" id="Fill-7"></path>
                <path d="M81,26.7446251 L81,28 L72.52456,28 L72.52456,26.7446251 L74.2211877,26.494494 L74.2211877,15.3224961 C74.2211877,12.2265338 73.1054985,10.8458312 70.7879032,10.8458312 C69.7132698,10.8458312 68.018695,11.598322 66.7788123,12.4771893 L66.7788123,26.494494 L68.5144428,26.7446251 L68.5144428,28 L60,28 L60,26.7446251 L61.7340909,26.494494 L61.7340909,10.0083901 L60,9.75878343 L60,8.37808075 L66.7788123,8.37808075 L66.7788123,11.0980598 C68.885997,9.38227582 70.9131231,8 73.764956,8 C77.5682551,8 79.2633431,10.2606188 79.2633431,14.6948086 L79.2633431,26.494494 L81,26.7446251 Z" id="Fill-9"></path>
                <path d="M6,3 C6,4.65723508 4.65657326,6 3.00056423,6 C1.34286251,6 0,4.65723508 0,3 C0,1.34276491 1.34286251,0 3.00056423,0 C4.65657326,0 6,1.34276491 6,3" id="Fill-11"></path>
                <path d="M90.9548894,42.214851 L91.2995001,42.214851 C91.5292406,42.214851 91.6071261,42.149138 91.6071261,41.9855084 C91.6071261,41.8214436 91.5292406,41.7596473 91.2995001,41.7596473 L90.9548894,41.7596473 L90.9548894,42.214851 Z M92.5484001,42.1762349 C92.5484001,42.4932396 92.4067163,42.6941756 92.0904946,42.7759229 L92.6387491,43.5172646 L92.1425137,43.5172646 L91.6455939,42.8352053 C91.6065794,42.8352053 91.5682495,42.8408216 91.5100702,42.8408216 L91.0774897,42.8408216 L91.0774897,43.5172646 L90.6387491,43.5172646 L90.6387491,41.5172646 L91.6065794,41.5172646 C92.2711927,41.5172646 92.5484001,41.7225688 92.5484001,42.1762349 L92.5484001,42.1762349 Z M89.8725786,42.4117968 C89.8725786,43.2361339 90.5480864,43.9120789 91.3725786,43.9120789 C92.1919917,43.9120789 92.8725786,43.2361339 92.8725786,42.4117968 C92.8725786,41.5874599 92.1919917,40.9120789 91.3725786,40.9120789 C90.5480864,40.9120789 89.8725786,41.5874599 89.8725786,42.4117968 L89.8725786,42.4117968 Z M93.4388081,42.4842652 C93.4388081,43.5897455 92.5447459,44.4836759 91.4391028,44.4836759 C90.3334596,44.4836759 89.4388081,43.5897455 89.4388081,42.4842652 C89.4388081,41.378785 90.3334596,40.4836759 91.4391028,40.4836759 C92.5447459,40.4836759 93.4388081,41.378785 93.4388081,42.4842652 L93.4388081,42.4842652 Z" id="Fill-13"></path>
            </g>
        </g>
    </g>
</svg>