<?xml version="1.0" encoding="UTF-8"?>
<svg width="200px" height="140px" viewBox="0 0 200 140" version="1.1" xmlns="http://www.w3.org/2000/svg" xmlns:xlink="http://www.w3.org/1999/xlink">
    <title>Fixed Logo/Johnson &amp; Johnson</title>
    <g id="Fixed-Logo/Johnson-&amp;-Johnson" stroke="none" stroke-width="1" fill="none" fill-rule="evenodd">
        <g id="Logo_JohnsonandJohnson_Grey" transform="translate(15.000000, 55.000000)" fill="#FFFFFF">
            <path d="M61.9998967,11.22489 C61.9998967,10.9434127 62.1914603,10.7930072 62.4316705,10.7930072 C62.8384339,10.7930072 63.4524267,11.22489 63.7987252,12.0887105 C63.6744975,12.0887105 63.4878811,12.126305 63.362554,12.126305 C62.6221347,12.126305 61.9998967,11.7741765 61.9998967,11.22489 Z M17.2013437,11.22489 C17.2013437,10.9434127 17.3847445,10.7930072 17.6353712,10.7930072 C18.0318006,10.7930072 18.620728,11.22489 18.9624916,12.0887105 C17.818772,12.0887105 17.2013437,11.8414175 17.2013437,11.22489 Z M25.841877,6.76115718 C25.841877,2.14014357 26.7417585,1.43017715 27.020996,1.43017715 C27.5176321,1.43017715 27.5767227,1.74014324 27.5767227,3.5121909 C27.5767227,5.33325441 26.8011239,7.71611753 25.841877,9.02436149 L25.841877,6.76115718 Z M57.2951837,11.3172124 C56.7622688,12.060219 56.330495,13.1154772 56.330495,14.4749838 C56.330495,17.0789311 57.8146315,19.5643746 60.6990785,19.5643746 C63.4878811,19.5643746 65.4414446,17.3604085 65.4414446,14.2869564 C65.4414446,13.3946719 65.4073644,13.2716029 65.3490983,12.9012134 C65.9974461,12.6186085 66.5567457,12.1866982 66.9918176,11.8414175 C67.3620273,11.5622228 67.6387912,11.4060971 67.8597627,11.4060971 C68.1379009,11.4060971 68.2596551,11.6237435 68.2596551,12.0260347 L68.2596551,18.1068528 C68.2596551,19.0971525 68.5729728,19.5643746 69.3441741,19.5643746 C70.0549106,19.5643746 70.5551196,19.0652233 70.8318836,18.4772148 C71.8573121,16.3382071 73.3414487,13.4869668 73.9897965,12.4043722 C74.1459057,12.1559241 74.2723321,11.9656141 74.3611055,11.9656141 C74.4853332,11.9656141 74.5490961,12.060219 74.5490961,12.4613552 L74.5490961,17.3022979 C74.5490961,18.6640872 75.1710593,19.5643746 76.5287694,19.5643746 C77.9573883,19.5643746 78.6659261,18.1957375 79.9145247,16.0886314 C79.9736153,15.9621522 80,15.8721125 80,15.7821002 C80,15.5029055 79.7584155,15.3444972 79.5088607,15.3444972 C79.2276993,15.3444972 79.0726895,15.6259745 78.1453789,16.6458933 C77.9573883,16.8396135 77.7751693,17.1085777 77.4310695,17.1085777 C77.308216,17.1085777 77.213671,16.9592723 77.213671,16.7701173 L77.213671,11.3434212 C77.213671,9.88589941 76.5620251,9.29786341 75.7256866,9.29786341 C75.0457322,9.29786341 74.4853332,9.57705813 73.8974502,10.4454164 C72.8437132,11.9986708 71.7591942,14.2014819 71.1726854,15.3114404 C71.1064489,15.4413573 71.0176756,15.6259745 70.9572107,15.6259745 C70.8923485,15.6259745 70.8648645,15.530242 70.8648645,15.3114404 L70.8648645,11.3434212 C70.8648645,10.1992784 70.5551196,9.29786341 69.3441741,9.29786341 C68.0730386,9.29786341 67.4235914,10.1673768 66.4940822,10.8169335 C65.9050998,11.2556641 65.3798804,11.5622228 64.9788887,11.7479676 C64.3558261,10.1673768 63.2108422,9.36623202 62.2505509,9.39015828 C61.2869615,9.42321502 60.6056329,10.0157888 60.6056329,11.0083711 C60.6056329,12.0260347 61.2286954,12.7348571 62.0614609,13.0505187 C62.5240168,13.2362635 62.9590887,13.2716029 63.5824261,13.2716029 C63.7690425,13.2716029 63.9537351,13.2716029 64.0732905,13.2362635 C64.1392521,13.5450773 64.1098442,13.984963 64.1098442,14.3245509 C64.1098442,15.8459036 63.2108422,17.3604085 61.5398144,17.3604085 C59.8003513,17.3604085 58.7817939,15.6863677 58.7817939,13.7661615 C58.7817939,12.3075121 59.2135677,11.1006935 59.9210061,10.2665195 C60.2071147,9.95426802 60.4201158,9.76508554 60.4201158,9.47904296 C60.4201158,9.33433033 60.2071147,9.29786341 60.0191241,9.29786341 C58.8389606,9.29786341 57.5414405,9.82663379 56.644912,10.2892907 C55.4611757,10.9103834 54.0702099,11.93715 52.9219279,12.9593514 C52.3651019,11.7160659 51.6837732,10.6311612 51.3407728,9.79129442 C51.2179192,9.45057896 51.1277717,9.05513562 50.8795911,9.05513562 C50.659719,9.05513562 50.5640746,9.27165453 50.4123629,9.69899956 C49.8566362,11.3434212 46.879843,16.1524623 46.2295713,16.8031466 C46.1680071,16.8920588 46.0778595,16.9900464 46.0484516,16.9900464 C45.9811158,16.9900464 45.9459363,16.9592723 45.9459363,16.7701173 L45.9459363,11.3434212 C45.9459363,9.88589941 45.3580533,9.29786341 44.5582686,9.29786341 C43.8736418,9.29786341 43.2871331,9.57705813 42.7300322,10.4454164 C41.709276,11.9986708 40.4642503,14.2618751 39.8774667,15.3752713 C39.7829217,15.5667089 39.689476,15.6259745 39.6575946,15.6259745 C39.6268125,15.6259745 39.601802,15.5029055 39.601802,15.3114404 L39.601802,11.3434212 C39.601802,9.88589941 39.010621,9.29786341 38.2039652,9.29786341 C37.5207127,9.29786341 36.8734643,9.55197681 36.3438474,10.4454164 C35.0452279,12.6493826 32.8772891,16.0282382 32.4740986,16.5820899 C32.4114351,16.677795 32.3487715,16.7404708 32.2872074,16.7701173 C32.2256432,16.7701173 32.1904636,16.7097241 32.1904636,16.555881 L32.1904636,11.3434212 C32.1904636,9.88589941 31.6025807,9.29786341 30.8016966,9.29786341 C29.6841967,9.29786341 29.0680052,10.3257576 28.6612418,10.9730592 C28.1008428,11.8721916 27.3604236,13.083548 26.7736399,14.2014819 C26.3693226,14.9490538 26.0264321,15.6259745 25.9011325,15.6259745 C25.841877,15.6259745 25.841877,15.3444972 25.841877,14.819137 L25.841877,10.6665006 C27.791098,8.49218094 29.0006693,5.82896804 29.0006693,2.91505192 C29.0006693,1.23758724 28.2602501,0.312245961 27.1166404,0.312245961 C24.9738495,0.312245961 23.33572,3.66146877 23.33572,7.62610528 L23.33572,10.8499627 C22.3423929,11.4710555 21.4116743,11.7741765 20.2634198,11.9986708 C19.6767461,10.2665195 18.435046,9.36623202 17.4474081,9.39015828 C16.4893704,9.42321502 15.8047437,10.0157888 15.8047437,11.0083711 C15.8047437,12.6493826 17.4166534,13.330841 18.8383189,13.330841 L19.2415918,13.330841 C19.3019467,13.6430925 19.3019467,13.984963 19.3019467,14.3245509 C19.3019467,15.8459036 18.4042914,17.3604085 16.7354348,17.3604085 C15.0016334,17.3604085 13.9763699,15.6863677 13.9763699,13.7661615 C13.9763699,12.3075121 14.405835,11.1006935 15.1189627,10.2665195 C15.400344,9.95426802 15.6190617,9.6750733 15.6190617,9.47904296 C15.6190617,9.33433033 15.400344,9.29786341 15.2123808,9.29786341 C14.0356254,9.29786341 11.4360502,10.8853021 8.33524914,13.984963 C8.06071136,11.5040847 7.74857544,9.08362712 7.74857544,6.72697288 C7.74857544,4.09337904 8.26917758,1.85638086 8.39335034,1.21137836 C8.4559864,0.811383524 8.49473886,0.559536247 8.49473886,0.377201635 C8.49473886,0.127634229 8.36259573,0 8.02880242,0 C5.51582936,0 0,4.00108418 0,9.98388708 C0,14.2265632 1.55267896,16.2744037 4.24337463,18.9090976 C2.60980747,21.5449741 1.29978484,24.674254 1.29978484,27.4649636 C1.29978484,29.4764197 1.7691183,31 3.25230119,31 C6.35197543,31 8.67357732,24.5557503 8.67357732,19.7786109 C8.67357732,18.3541183 8.61663044,16.9262431 8.49473886,15.5029055 C9.63730416,14.2869564 11.4041413,12.6493826 11.8347608,12.4943844 C11.6502056,13.1462238 11.5260329,13.8299923 11.5260329,14.4749838 C11.5260329,17.0789311 13.0160785,19.5643746 15.8947263,19.5643746 C18.5945357,19.5643746 20.6359106,17.3604085 20.6359106,14.2869564 C20.6359106,13.8903855 20.6040292,13.5450773 20.5766826,13.1747153 C21.5631937,12.9889705 22.4711005,12.7348571 23.33572,12.2163448 L23.33572,18.4464407 C23.33572,19.248713 23.8893579,19.5643746 24.4168035,19.5643746 C25.1333392,19.5643746 25.5047031,19.0652233 26.0264321,17.9245182 C26.465022,16.9900464 27.6382869,14.8533213 28.3503976,13.5781341 C28.911896,12.5832691 29.2219156,11.93715 29.4711956,11.93715 C29.5294617,11.93715 29.5954233,12.0887105 29.5954233,12.4613552 L29.5954233,17.7638272 C29.5954233,19.1905749 30.3394155,19.5643746 30.9828162,19.5643746 C31.6025807,19.5643746 32.0082447,19.2236317 32.4114351,18.6640872 C34.0244717,16.3678261 35.7309539,13.6430925 36.4076103,12.4613552 C36.5329374,12.249374 36.686573,12.0887105 36.8119001,12.0887105 C36.9328297,12.0887105 36.9954933,12.1559241 36.9954933,12.5536501 L36.9954933,18.1068528 C36.9954933,19.0971525 37.3052381,19.5643746 38.0833104,19.5643746 C38.7918482,19.5643746 39.2555035,19.0652233 39.5322675,18.4772148 C40.5620934,16.3382071 42.0761875,13.5154583 42.7300322,12.4043722 C42.8814691,12.1559241 43.0375782,11.93715 43.1299245,11.93715 C43.2585497,11.93715 43.2871331,12.0887105 43.2871331,12.4943844 L43.2871331,17.7638272 C43.2871331,19.1905749 44.0308504,19.5643746 44.6857944,19.5643746 C45.5460439,19.5643746 46.109741,18.9410268 46.6668419,18.2310493 C47.6829258,16.8920588 49.1720095,14.5148609 50.071836,12.9889705 C50.3840544,13.4869668 50.7212832,14.0772854 51.0049182,14.7268421 C50.2598266,15.6259745 49.5147351,16.6458933 49.5147351,17.7296429 C49.5147351,18.878351 50.3202914,19.5643746 51.1574544,19.5643746 C52.5803017,19.5643746 53.8800205,18.1957375 53.8800205,16.308588 C53.8800205,15.5667089 53.6670195,14.7895179 53.3902555,14.0476388 C54.6536955,12.8043533 56.1743858,11.595252 57.2951837,11.3172124 L57.2951837,11.3172124 Z M6.2562761,18.0749236 C6.5069028,19.7159351 6.72446623,21.3318653 6.72446623,22.6002322 C6.72446623,25.5711038 5.73567397,29.0446469 4.03034606,29.0160454 C3.37191161,29.0160454 2.81827369,28.3573857 2.79095459,27.2166255 C2.72829104,23.5004921 4.49400132,20.3370004 6.2562761,18.0749236 Z M51.4957826,15.9621522 C51.6837732,16.4954604 51.7783182,16.9262431 51.7783182,17.3604085 C51.7783182,17.8572771 51.591427,18.3541183 51.2487013,18.3541183 C51.0049182,18.3541183 50.7564627,18.0749236 50.7564627,17.6396032 C50.7564627,17.1735361 51.1574544,16.4293744 51.4957826,15.9621522 L51.4957826,15.9621522 Z M7.37493032,1.17832987 C7.37493032,1.36750134 6.94090281,2.23243844 6.38501121,3.78456526 C5.79605634,5.39364759 5.23444806,7.6853434 5.23444806,10.4454164 C5.23444806,12.0887105 5.64112897,14.2618751 5.98401949,16.4612761 L4.99181921,17.7991666 C3.40950974,15.8721125 2.41959063,13.7057683 2.41959063,9.98388708 C2.41959063,4.71559935 5.61037436,1.06095368 7.24963071,1.06095368 C7.34758372,1.06095368 7.37493032,1.08830387 7.37493032,1.17832987 L7.37493032,1.17832987 Z" id="Shape"></path>
            <path d="M152.966182,11.22489 C152.966182,10.9434127 153.147666,10.7930072 153.398824,10.7930072 C153.79952,10.7930072 154.421632,11.22489 154.761742,12.0887105 C154.640845,12.0887105 154.45468,12.126305 154.324694,12.126305 C153.586091,12.126305 152.966182,11.7741765 152.966182,11.22489 Z M108.068352,11.22489 C108.068352,10.9434127 108.257823,10.7930072 108.503198,10.7930072 C108.907199,10.7930072 109.503149,11.22489 109.837475,12.0887105 C108.689363,12.0887105 108.068352,11.8414175 108.068352,11.22489 Z M116.731933,6.76115718 C116.731933,2.14014357 117.628061,1.43017715 117.911164,1.43017715 C118.406596,1.43017715 118.469386,1.74014324 118.469386,3.5121909 C118.469386,5.33325441 117.69085,7.71611753 116.731933,9.02436149 L116.731933,6.76115718 Z M97.1126785,18.0749236 C97.3536471,19.7159351 97.5794692,21.3318653 97.5794692,22.6002322 C97.5794692,25.5711038 96.5875045,29.0446469 94.8753878,29.0160454 C94.2249102,29.0160454 93.6655875,28.3573857 93.6347435,27.2166255 C93.5708524,23.5004921 95.3435555,20.3370004 97.1126785,18.0749236 Z M142.442048,15.9621522 C142.630417,16.4954604 142.719369,16.9262431 142.719369,17.3604085 C142.719369,17.8572771 142.533479,18.3541183 142.191992,18.3541183 C141.946617,18.3541183 141.691052,18.0749236 141.691052,17.6396032 C141.691052,17.1735361 142.098358,16.4293744 142.442048,15.9621522 L142.442048,15.9621522 Z M98.224439,1.17832987 C98.224439,1.36750134 97.7940001,2.23243844 97.2313727,3.78456526 C96.6458878,5.39364759 96.082985,7.6853434 96.082985,10.4454164 C96.082985,12.0887105 96.4974511,14.2618751 96.8364596,16.4612761 L95.8400886,17.7991666 C94.2590589,15.8721125 93.2602094,13.7057683 93.2602094,9.98388708 C93.2602094,4.71559935 96.464404,1.06095368 98.1068463,1.06095368 C98.1971751,1.06095368 98.224439,1.08830387 98.224439,1.17832987 L98.224439,1.17832987 Z M93.0478816,16.677795 C93.602798,17.4219567 94.2876997,18.1341892 95.0946005,18.9090976 C93.4474765,21.5449741 92.1451442,24.674254 92.1451442,27.4649636 C92.1451442,29.4764197 92.6141381,31 94.104839,31 C97.206312,31 99.5325545,24.5557503 99.5325545,19.7786109 C99.5325545,18.3541183 99.4719681,16.9262431 99.347766,15.5029055 C100.498357,14.2869564 102.261697,12.6493826 102.702325,12.4943844 C102.515058,13.1462238 102.386174,13.8299923 102.386174,14.4749838 C102.386174,17.0789311 103.877977,19.5643746 106.768223,19.5643746 C109.466521,19.5643746 111.515443,17.3604085 111.515443,14.2869564 C111.515443,13.8903855 111.487078,13.5450773 111.452654,13.1747153 C112.448199,12.9889705 113.354516,12.7348571 114.218423,12.2163448 L114.218423,18.4464407 C114.218423,19.248713 114.774441,19.5643746 115.298238,19.5643746 C116.02197,19.5643746 116.394026,19.0652233 116.9192,17.9245182 C117.351842,16.9900464 118.534378,14.8533213 119.250124,13.5781341 C119.806968,12.5832691 120.117611,11.93715 120.372074,11.93715 C120.430182,11.93715 120.488565,12.0887105 120.488565,12.4613552 L120.488565,17.7638272 C120.488565,19.1905749 121.231575,19.5643746 121.884531,19.5643746 C122.507745,19.5643746 122.90734,19.2236317 123.319327,18.6640872 C124.928722,16.3678261 126.638636,13.6430925 127.319957,12.4613552 C127.444435,12.249374 127.60196,12.0887105 127.721755,12.0887105 C127.842928,12.0887105 127.911226,12.1559241 127.911226,12.5536501 L127.911226,18.1068528 C127.911226,19.0971525 128.218289,19.5643746 128.993519,19.5643746 C129.707888,19.5643746 130.173577,19.0652233 130.455579,18.4772148 C131.480591,16.3382071 133.001034,13.5154583 133.650686,12.4043722 C133.809312,12.1559241 133.963256,11.93715 134.06047,11.93715 C134.181368,11.93715 134.215516,12.0887105 134.215516,12.4943844 L134.215516,17.7638272 C134.215516,19.1905749 134.95412,19.5643746 135.604873,19.5643746 C136.480346,19.5643746 137.039669,18.9410268 137.59431,18.2310493 C138.61822,16.8920588 140.112226,14.5148609 141.011934,12.9889705 C141.318721,13.4869668 141.664614,14.0772854 141.946617,14.7268421 C141.193418,15.6259745 140.455916,16.6458933 140.455916,17.7296429 C140.455916,18.878351 141.253729,19.5643746 142.098358,19.5643746 C143.524066,19.5643746 144.826399,18.1957375 144.826399,16.308588 C144.826399,15.5667089 144.610766,14.7895179 144.331242,14.0476388 C145.602731,12.8043533 147.125377,11.595252 148.242921,11.3172124 C147.715544,12.060219 147.280699,13.1154772 147.280699,14.4749838 C147.280699,17.0789311 148.772501,19.5643746 151.660545,19.5643746 C154.45468,19.5643746 156.405286,17.3604085 156.405286,14.2869564 C156.405286,13.3946719 156.376921,13.2716029 156.318538,12.9012134 C156.963507,12.6186085 157.52641,12.1866982 157.965662,11.8414175 C158.330006,11.5622228 158.615313,11.4060971 158.828742,11.4060971 C159.109643,11.4060971 159.24073,11.6237435 159.24073,12.0260347 L159.24073,18.1068528 C159.24073,19.0971525 159.546691,19.5643746 160.322748,19.5643746 C161.034088,19.5643746 161.533925,19.0652233 161.814826,18.4772148 C162.832953,16.3382071 164.325857,13.4869668 164.975508,12.4043722 C165.130555,12.1559241 165.257511,11.9656141 165.350869,11.9656141 C165.477549,11.9656141 165.538136,12.060219 165.538136,12.4613552 L165.538136,17.3022979 C165.538136,18.6640872 166.153363,19.5643746 167.523167,19.5643746 C168.95576,19.5643746 169.667925,18.1957375 170.91215,16.0886314 C170.970258,15.9621522 171,15.8721125 171,15.7821002 C171,15.5029055 170.75132,15.3444972 170.504568,15.3444972 C170.227248,15.3444972 170.068622,15.6259745 169.139447,16.6458933 C168.95576,16.8396135 168.766289,17.1085777 168.426179,17.1085777 C168.298122,17.1085777 168.210272,16.9592723 168.210272,16.7701173 L168.210272,11.3434212 C168.210272,9.88589941 167.550431,9.29786341 166.712686,9.29786341 C166.033567,9.29786341 165.477549,9.57705813 164.88518,10.4454164 C163.827121,11.9986708 162.744001,14.2014819 162.158241,15.3114404 C162.091045,15.4413573 162.000716,15.6259745 161.934622,15.6259745 C161.868528,15.6259745 161.844568,15.530242 161.844568,15.3114404 L161.844568,11.3434212 C161.844568,10.1992784 161.533925,9.29786341 160.322748,9.29786341 C159.046853,9.29786341 158.398304,10.1673768 157.468027,10.8169335 C156.872352,11.2556641 156.34828,11.5622228 155.940974,11.7479676 C155.325747,10.1673768 154.172677,9.36623202 153.215137,9.39015828 C152.247131,9.42321502 151.570216,10.0157888 151.570216,11.0083711 C151.570216,12.0260347 152.191227,12.7348571 153.022086,13.0505187 C153.488877,13.2362635 153.923998,13.2716029 154.552719,13.2716029 C154.734203,13.2716029 154.914585,13.2716029 155.047049,13.2362635 C155.107636,13.5450773 155.07569,13.984963 155.07569,14.3245509 C155.07569,15.8459036 154.172677,17.3604085 152.494709,17.3604085 C150.757532,17.3604085 149.736926,15.6863677 149.736926,13.7661615 C149.736926,12.3075121 150.168467,11.1006935 150.879531,10.2665195 C151.162635,9.95426802 151.381847,9.76508554 151.381847,9.47904296 C151.381847,9.33433033 151.162635,9.29786341 150.976745,9.29786341 C149.802195,9.29786341 148.494079,9.82663379 147.593269,10.2892907 C146.41211,10.9103834 145.014767,11.93715 143.86996,12.9593514 C143.309535,11.7160659 142.630417,10.6311612 142.284524,9.79129442 C142.156741,9.45057896 142.072196,9.05513562 141.814153,9.05513562 C141.599622,9.05513562 141.504887,9.27165453 141.352044,9.69899956 C140.791619,11.3434212 137.813522,16.1524623 137.161668,16.8031466 C137.098878,16.8920588 137.006346,16.9900464 136.973299,16.9900464 C136.915191,16.9900464 136.880767,16.9592723 136.880767,16.7701173 L136.880767,11.3434212 C136.880767,9.88589941 136.295282,9.29786341 135.480395,9.29786341 C134.796595,9.29786341 134.215516,9.57705813 133.650686,10.4454164 C132.624297,11.9986708 131.385856,14.2618751 130.795689,15.3752713 C130.704534,15.5667089 130.613104,15.6259745 130.583361,15.6259745 C130.548111,15.6259745 130.516166,15.5029055 130.516166,15.3114404 L130.516166,11.3434212 C130.516166,9.88589941 129.930681,9.29786341 129.122403,9.29786341 C128.437501,9.29786341 127.78124,9.55197681 127.258545,10.4454164 C125.950429,12.6493826 123.780335,16.0282382 123.37413,16.5820899 C123.319327,16.677795 123.252957,16.7404708 123.186863,16.7701173 C123.13206,16.7701173 123.095433,16.7097241 123.095433,16.555881 L123.095433,11.3434212 C123.095433,9.88589941 122.507745,9.29786341 121.697264,9.29786341 C120.576415,9.29786341 119.960086,10.3257576 119.553607,10.9730592 C118.995386,11.8721916 118.254579,13.083548 117.662209,14.2014819 C117.261513,14.9490538 116.9192,15.6259745 116.794722,15.6259745 C116.731933,15.6259745 116.731933,15.3444972 116.731933,14.819137 L116.731933,10.6665006 C118.690801,8.49218094 119.897297,5.82896804 119.897297,2.91505192 C119.897297,1.23758724 119.154012,0.312245961 118.001218,0.312245961 C115.862242,0.312245961 114.218423,3.66146877 114.218423,7.62610528 L114.218423,10.8499627 C113.222052,11.4710555 112.290674,11.7741765 111.140083,11.9986708 C110.554323,10.2665195 109.311475,9.36623202 108.323917,9.39015828 C107.35481,9.42321502 106.67459,10.0157888 106.67459,11.0083711 C106.67459,12.6493826 108.283985,13.330841 109.715476,13.330841 L110.121956,13.330841 C110.178962,13.6430925 110.178962,13.984963 110.178962,14.3245509 C110.178962,15.8459036 109.281733,17.3604085 107.603765,17.3604085 C105.864109,17.3604085 104.84488,15.6863677 104.84488,13.7661615 C104.84488,12.3075121 105.278624,11.1006935 105.987485,10.2665195 C106.265907,9.95426802 106.48512,9.6750733 106.48512,9.47904296 C106.48512,9.33433033 106.265907,9.29786341 106.08222,9.29786341 C104.900785,9.29786341 102.294744,10.8853021 99.1866612,13.984963 C98.9140224,11.5040847 98.6000747,9.08362712 98.6000747,6.72697288 C98.6000747,4.09337904 99.1274518,1.85638086 99.2516539,1.21137836 C99.3133419,0.811383524 99.347766,0.559536247 99.347766,0.377201635 C99.347766,0.127634229 99.2208099,0 98.8853815,0 C96.3696689,0 90.8428119,4.00108418 90.8428119,9.98388708 C90.8428119,12.429426 91.3699136,14.1695802 92.3015673,15.6863677 C91.9545724,15.6259745 91.6816582,15.6259745 91.4271953,15.6259745 C90.4374338,15.6259745 89.5027509,15.8721125 88.9227738,15.9986192 L88.9227738,15.3752713 C88.9227738,14.0476388 88.6077245,12.2163448 88.0473002,11.595252 C87.9809306,11.5314487 87.888674,11.5040847 87.8019253,11.5040847 C87.5460854,11.5040847 87.2403995,11.6237435 86.9000141,11.8117709 C86.5235522,11.9986708 86.1512212,12.1866982 86.1512212,12.3075121 C86.1512212,12.3667502 86.1512212,12.429426 86.2448547,12.5832691 C86.4640674,12.9012134 87.0553356,13.5154583 87.268765,14.9764178 C86.210706,13.9211596 85.005312,13.4527825 83.4278624,13.4527825 C81.5615258,13.4527825 81,14.2869564 81,15.1291058 C81,16.7404708 83.1425555,17.5461807 85.8477384,17.5461807 C86.34317,17.5461807 86.9000141,17.4527308 87.456032,17.3262241 C87.456032,17.8230928 87.5188216,18.2629785 87.5188216,18.6321855 C87.5188216,19.1598283 87.608875,19.5643746 87.9547683,19.5643746 C88.4810438,19.5643746 88.79389,18.5057063 88.8530994,16.9900464 C89.8153216,16.7404708 90.810591,16.5262345 91.6519158,16.5262345 C92.0537138,16.5262345 92.5560302,16.5820899 93.0478816,16.677795 L93.0478816,16.677795 Z M86.9319596,16.3678261 C86.4092642,16.4293744 86.0909102,16.4293744 85.5370954,16.4293744 C84.3226134,16.4293744 83.4278624,15.9621522 83.4278624,15.2863591 C83.4278624,14.8533213 83.6423933,14.6014905 84.263404,14.6014905 C85.2586733,14.6014905 86.0611678,15.2863866 86.9319596,16.3678261 Z" id="Shape"></path>
        </g>
    </g>
</svg>