<?xml version="1.0" encoding="UTF-8"?>
<svg width="200px" height="140px" viewBox="0 0 200 140" version="1.1" xmlns="http://www.w3.org/2000/svg" xmlns:xlink="http://www.w3.org/1999/xlink">
    <title>Fixed Logo/McDonalds</title>
    <g id="Fixed-Logo/McDonalds" stroke="none" stroke-width="1" fill="none" fill-rule="evenodd">
        <g id="McDonalds_logo_2" transform="translate(56.000000, 31.000000)" fill="#FFFFFF" fill-rule="nonzero">
            <path d="M63.947174,5.46976744 C71.6076838,5.46976744 77.8215737,37.4744186 77.8215737,77 L89,77 C89,34.4465116 77.7229405,0 63.9142963,0 C56.0236424,0 49.0535648,10.3209302 44.4506834,26.5348837 C39.847802,10.3209302 32.8777244,0 25.052826,0 C11.2441818,0 0,34.4139535 0,76.9674419 L11.1784263,76.9674419 C11.1784263,37.4418605 17.3265608,5.46976744 24.9870706,5.46976744 C32.6475803,5.46976744 38.8614703,35.0325581 38.8614703,71.4976744 L49.9741411,71.4976744 C49.9741411,35.0325581 56.2209088,5.46976744 63.8814185,5.46976744" id="Path"></path>
        </g>
    </g>
</svg>