<?xml version="1.0" encoding="UTF-8"?>
<svg width="200px" height="140px" viewBox="0 0 200 140" version="1.1" xmlns="http://www.w3.org/2000/svg" xmlns:xlink="http://www.w3.org/1999/xlink">
    <title>Fixed Logo/National Geographic</title>
    <g id="Fixed-Logo/National-Geographic" stroke="none" stroke-width="1" fill="none" fill-rule="evenodd">
        <g id="Logo_NatGeo" transform="translate(16.000000, 46.000000)" fill="#FFFFFF" fill-rule="nonzero">
            <path d="M0,49 L0,0 L34,0 L34,49 L0,49 Z M29.0800577,44.0639043 L29.0800577,4.93579456 L4.89591667,4.93579456 L4.89591667,44.0639043 L29.0800577,44.0639043 Z" id="Shape"></path>
            <path d="M57,22 L54.8493717,22 C52.0307999,18.0924199 49.224027,14.2087818 46.429666,9.8129943 L46.429666,22 L44,22 L44,5 L46.1503218,5 C48.9692001,8.8836531 51.7756666,12.7435143 54.5458167,17.1156749 L54.5458167,5 L56.9757892,5 L56.9757892,22 L57,22 Z" id="Path"></path>
            <path d="M62.8656301,15.2810697 C63.5588574,13.0533647 64.2520846,10.9803899 64.8724456,8.35970533 C65.5656728,10.980555 66.1861872,13.0533647 66.8307858,15.2810697 L62.8656301,15.2810697 Z M64.0087878,5.01196351 L58,22 L60.5788545,22 L62.0869575,17.365903 L67.317226,17.365903 L68.6792895,22 L72,22 L66.5143158,5 L64.0819609,5 L64.0087878,5.01196351 Z" id="Shape"></path>
            <polygon id="Path" points="74.5363472 22 74.5363472 7.27704738 70 7.27704738 70 5 82 5 82 7.27704738 77.4639579 7.27704738 77.4639579 22 74.5003433 22"></polygon>
            <polygon id="Path" points="83 22 83 5 86 5 86 22"></polygon>
            <path d="M94.5001563,19.4874232 C91.3389619,19.4874232 90.2231082,16.0768093 90.2231082,12.7631412 C90.2231082,9.44951898 91.4627892,6.52441402 94.5001563,6.52441402 C97.5375235,6.52441402 98.7646967,9.57111797 98.7646967,12.7631412 C98.7646967,15.9555315 97.6613508,19.4874232 94.5001563,19.4874232 Z M94.5001563,21.9149679 C99.1239837,21.9149679 102,17.8854241 102,12.7147065 C102,7.85978536 98.8141026,4 94.5001563,4 C90.1862101,4 87,7.85978536 87,12.7147065 C87,17.9579156 89.876329,22 94.5001563,22 L94.5001563,21.9149679 Z" id="Shape"></path>
            <path d="M117,22 L114.849422,22 C112.030917,18.0924199 109.224057,14.2087818 106.429762,9.8129943 L106.429762,22 L104,22 L104,5 L106.150424,5 C108.969083,8.8836531 111.77579,12.7435143 114.545568,17.1156749 L114.545568,5 L116.975483,5 L116.975483,22 L117,22 Z" id="Path"></path>
            <path d="M121.853051,15.2690611 C122.546585,13.0413862 123.239812,10.9684113 123.86002,8.34774182 C124.553247,10.9685915 125.173455,13.0413862 125.818514,15.2690611 L121.804422,15.2690611 L121.853051,15.2690611 Z M122.996516,5 L117,22 L119.578548,22 L121.086804,17.3657529 L126.317073,17.3657529 L127.67929,22 L131,22 L125.465534,5 L123.032872,5 L122.996516,5 Z" id="Shape"></path>
            <polygon id="Path" points="132 5 135.012559 5 135.012559 19.7126726 141 19.7126726 141 22 132 22"></polygon>
            <path d="M55,36.7439623 L55,43.9268134 C53.4668578,44.5894109 51.8264167,44.9532863 50.1625321,45 C45.1578041,45 42,41.0244154 42,35.9025004 C42,31.1581369 45.1578041,27 50.2576584,27 C51.7332439,27.0082978 53.1711095,27.4762035 54.3805516,28.3413295 L53.4392065,30.4022657 C52.4977111,29.8261809 51.4260745,29.5111705 50.3294916,29.4878136 C47.2193258,29.4878136 45.1101658,32.0002134 45.1101658,35.9513655 C45.1101658,39.9025175 47.4931334,42.5124937 50.0433612,42.5124937 C50.7465147,42.5435338 51.4462118,42.396785 52.080688,42.0854626 L52.080688,36.7439623 L55,36.7439623 L55,36.7439623 Z" id="Path"></path>
            <polygon id="Path" points="66.0949031 29.295697 61.0370544 29.295697 61.0370544 33.9475002 65.9956223 33.9475002 65.9956223 36.2316551 61.0370544 36.2316551 61.0370544 41.7159951 67 41.7159951 67 44 58 44 58 27 66.0828643 27 66.0828643 29.2840049"></polygon>
            <path d="M74.4999218,42.5189429 C71.3386944,42.5189429 70.235337,39.1012447 70.235337,35.7811643 C70.235337,32.4607775 71.475031,29.5296361 74.4999218,29.5296361 C77.5248126,29.5296361 78.7770146,32.5823018 78.7770146,35.7811643 C78.7768582,38.9797204 77.6611493,42.5189429 74.4999218,42.5189429 Z M74.4999218,44.9514209 C79.1237974,44.9514209 82,40.9133818 82,35.732432 C82,30.8676293 78.8140694,27 74.4999218,27 C70.186087,27 67,30.8676293 67,35.732432 C67,40.9621141 69.8758899,45 74.4999218,45 L74.4999218,44.9514209 L74.4999218,44.9514209 Z" id="Shape"></path>
            <path d="M96,36.7439623 L96,43.9268134 C94.4667252,44.5894109 92.8260025,44.9532863 91.1621372,45 C86.1577676,45 83,41.0244154 83,35.9025004 C83,31.1582906 86.1577676,27 91.257563,27 C92.7329811,27.0082978 94.1708301,27.4762035 95.3802582,28.3413295 L94.4390743,30.4024193 C93.4974395,29.8261809 92.4255147,29.5111705 91.3289445,29.4879673 C88.2191152,29.4879673 86.1099795,32.0002134 86.1099795,35.9513655 C86.1099795,39.9025175 88.4930699,42.5124937 91.0429676,42.5124937 C91.746113,42.5435338 92.4458021,42.396785 93.0805715,42.0854626 L93.0805715,36.7439623 L96,36.7439623 L96,36.7439623 Z" id="Path"></path>
            <path d="M101.765995,29.286871 L103.016086,29.286871 C104.33274,29.152826 105.505759,30.1426276 105.636256,31.4982385 C105.653335,31.6741632 105.651875,31.8515889 105.632023,32.0270633 C105.840323,33.6647241 104.71927,35.1659382 103.128337,35.38014 C103.068051,35.3880957 103.007474,35.3944001 102.946604,35.3986031 L101.789204,35.4700538 L101.789204,29.2751627 L101.765995,29.286871 Z M108.94205,44 L105.666472,36.9592594 C107.446874,35.9419883 108.543842,34.0039646 108.52545,31.9080289 C108.52545,28.6080899 106.569299,27 103.409622,27 L99,27 L99,44 L101.835623,44 L101.835623,37.5904568 L103.108777,37.5904568 L105.770549,44 L109,44 L108.94205,44 Z" id="Shape"></path>
            <path d="M113.84906,37.2930368 C114.541695,35.065288 115.234484,32.9923004 115.854468,30.3712694 C116.547104,32.9923004 117.166628,35.0531293 117.810676,37.2930368 L113.800626,37.2930368 L113.84906,37.2930368 Z M114.991242,27 L109,44 L111.588761,44 L113.095729,39.365424 L118.321072,39.365424 L119.682278,44 L123,44 L117.470566,27 L115.040135,27 L114.991242,27 L114.991242,27 Z" id="Shape"></path>
            <path d="M128.623044,27 L124,27 L124,44 L126.972766,44 L126.972766,37.6024088 L128.307802,37.6024088 C131.430385,37.6231237 133.978798,35.1543019 133.999763,32.0883516 C134.000375,32.0320612 133.999763,31.975921 133.998385,31.9199308 C133.949722,28.6198125 131.898963,27 128.623044,27 Z M128.198232,35.3985272 L126.984855,35.4699785 L126.984855,29.2871914 L128.319585,29.2871914 C129.701296,29.1663547 130.921253,30.1680235 131.044442,31.524547 C131.059745,31.6920672 131.057144,31.8604881 131.037556,32.0271077 C131.26098,33.6707873 130.085249,35.1807209 128.411097,35.4000283 C128.328614,35.410836 128.245366,35.4183414 128.161964,35.4225444 L128.198232,35.3985272 Z" id="Shape"></path>
            <polygon id="Path" points="148 44 145.048206 44 145.048206 35.8213759 138.927633 35.8213759 138.927633 44 136 44 136 27 138.927633 27 138.927633 33.5235192 145.048206 33.5235192 145.048206 27.0474001 148 27.0474001 148 43.98785"></polygon>
            <polygon id="Path" points="150 44 150 27 153 27 153 43.98785 150 43.98785"></polygon>
            <path d="M166.092149,30.4267934 C165.202158,29.8453402 164.181198,29.5134325 163.128984,29.4636464 C160.19112,29.4636464 158.055438,31.9753886 158.055438,35.9266269 C158.055438,39.8777115 160.41585,42.4877968 163.200422,42.4877968 C164.224358,42.4850309 165.22597,42.1852383 166.092149,41.6219172 L166.882426,43.7805465 C165.748357,44.540861 164.434206,44.9626604 163.082848,45 C158.126876,45 155,41.0243297 155,35.9021948 C155,31.1585269 158.103063,27 163.130473,27 C164.519038,27.0445617 165.865931,27.5112301 167,28.341614 L166.092149,30.4267934 Z" id="Path"></path>
        </g>
    </g>
</svg>