<?xml version="1.0" encoding="UTF-8"?>
<svg width="200px" height="140px" viewBox="0 0 200 140" version="1.1" xmlns="http://www.w3.org/2000/svg" xmlns:xlink="http://www.w3.org/1999/xlink">
    <title>Fixed Logo/Pepsico</title>
    <g id="Fixed-Logo/Pepsico" stroke="none" stroke-width="1" fill="none" fill-rule="evenodd">
        <g id="2014_PepsiCo_Color" transform="translate(9.000000, 43.000000)" fill="#FFFFFF">
            <path d="M7.30297993,10.1909953 C7.48481193,9.89178772 7.70681612,10.0106812 7.92622545,10.1034507 C7.99734368,10.1926208 8.00743478,10.3055929 7.9959982,10.41752 C7.88461168,11.516124 7.79840486,12.6167018 7.80023087,13.7251748 C7.80042308,13.8242141 7.7738979,13.9184929 7.71440847,13.993498 C7.4775079,13.995704 7.24051122,13.997794 7.00361064,14 C6.97785431,12.7158571 7.09116294,11.447737 7.30297993,10.1909953" id="Fill-1"></path>
            <path d="M18,4.70573391 C18.0879217,4.42590775 18.1660882,4.13865134 18.4357315,4 C19.7022793,4.49404178 20.8580183,5.2360858 22,6.00869199 C21.8799362,6.37389598 21.6815808,6.68764896 21.4809743,7 C21.1376669,6.97252208 20.9268049,6.67615309 20.6632899,6.48913501 C19.9359034,5.97266227 19.1995122,5.47567643 18.4204734,5.06056358 C18.2622643,4.9763073 18.0724135,4.92429553 18,4.70573391" id="Fill-2"></path>
            <path d="M16.6377155,7 C17.474569,7.75792755 18.2801724,8.5461679 19,9.4179297 C18.7563578,9.64516823 18.4869612,9.83693432 18.1965517,10 C17.4644397,9.15597119 16.7322198,8.31194238 16,7.46791358 C16.1592672,7.23970762 16.4023707,7.12501344 16.6377155,7" id="Fill-3"></path>
            <g id="Group-8" transform="translate(11.000000, 9.000000)">
                <path d="M1.03978899,4.08608955 C0.631155963,2.871 0.286766472,1.63867164 0.0437689741,0.378391791 C0.247778982,0.0971529851 0.529028357,0.0485149254 0.846445371,0.108973881 C1.23509425,1.32800373 1.63686155,2.54272388 2.11562302,3.73023134 C1.76878148,3.88476493 1.41409341,4.01516418 1.03978899,4.08608955" id="Fill-4"></path>
                <path d="M96.8113311,26.7760522 C98.0002043,26.7762985 99.1892002,26.7824552 100.377951,26.77125 C100.621684,26.7689104 100.734355,26.8094216 100.777879,27.0885672 C100.873877,27.7041157 101.253821,28.0878022 101.860211,28.252556 C102.957623,28.5506642 104.063004,28.56975 105.159313,28.2963918 C106.023535,28.0807836 106.417334,27.3855672 106.180344,26.610806 C106.008823,26.0499291 105.560712,25.8343209 105.041492,25.7466493 C102.513681,25.3199888 99.9841526,24.9036716 97.4552377,24.4840299 C95.1226088,24.0970187 93.5035246,22.6152201 93.1756864,20.4916455 C92.6798832,17.2799328 93.9588691,14.9162463 97.1912752,13.8943545 C98.6347932,13.4380187 100.121099,13.2676007 101.617214,13.226597 C103.979144,13.1618284 106.337152,13.2403881 108.629812,13.9136866 C110.031891,14.3253246 111.308302,14.9523246 112.232477,16.148944 C112.889625,17.0010336 113.174062,17.9896791 113.300342,19.0393993 C113.32241,19.2268097 113.272143,19.2923172 113.06985,19.2917015 C110.692226,19.284806 108.314357,19.2870224 105.936488,19.2875149 C105.814254,19.2875149 105.683927,19.2941642 105.668602,19.1285485 C105.567946,18.0423806 104.749944,17.748459 103.889522,17.5482425 C102.966696,17.3336194 102.030628,17.3539366 101.111602,17.5957724 C100.656871,17.715459 100.251671,17.9255261 100.09474,18.4308694 C99.9091201,19.028194 100.168914,19.5325522 100.78168,19.6421418 C102.371707,19.926459 103.969827,20.1654627 105.558873,20.4551978 C107.216822,20.7573694 108.918173,20.8573545 110.517641,21.4391642 C113.387389,22.4829739 114.303228,24.6322836 113.989366,27.3361903 C113.653436,30.222459 111.749425,31.6397351 109.176741,32.3475112 C106.688775,33.0320149 104.136688,33.0635373 101.579084,32.9463134 C100.094862,32.8783433 98.6232686,32.7229478 97.1977731,32.2753545 C95.4999783,31.7424291 94.0519241,30.8851679 93.2971852,29.1609179 C93.0139741,28.5139701 92.8894103,27.8302052 92.8554495,27.1248918 C92.8423311,26.85375 92.9198157,26.7658321 93.1999616,26.7692799 C94.4036697,26.7844254 95.6075004,26.775806 96.8113311,26.7760522" id="Fill-6"></path>
                <path d="M143.250826,21.1134739 C142.165796,21.1134739 141.080767,21.0910634 139.996964,21.1260336 C139.630384,21.1378545 139.524946,21.0038843 139.452611,20.6849664 C139.138749,19.2774179 138.363903,18.2201866 136.898807,17.9805672 C134.302093,17.5558769 132.16759,18.6143396 131.778941,21.8297463 C131.625688,23.0985224 131.671051,24.3557239 132.036405,25.5900224 C132.672711,27.7419179 134.35849,28.4903284 136.317673,28.2933134 C138.004679,28.1236343 138.981818,27.1219366 139.426864,25.5433545 C139.520042,25.2136007 139.648774,25.1104142 139.994512,25.1134925 C142.163344,25.1327015 144.332177,25.1285149 146.501009,25.118541 C146.827131,25.1170634 146.959541,25.1282687 146.871268,25.5427388 C146.659166,26.533847 146.415188,27.5106716 145.99834,28.4347948 C145.012619,30.6156269 143.269216,31.8574366 141.013336,32.4470037 C138.821209,33.0204403 136.582494,33.0573806 134.338874,32.9557948 C133.006188,32.895459 131.688215,32.7108806 130.409475,32.2875448 C127.728165,31.3998694 125.97005,29.6096194 125.219725,26.8802239 C124.530701,24.3740709 124.527023,21.8383657 125.217273,19.3327052 C126.082844,16.1848993 128.23819,14.3715 131.343703,13.6543657 C133.767548,13.0948433 136.226947,13.1182388 138.688799,13.3468993 C139.906239,13.4598134 141.090575,13.7182724 142.213611,14.2045299 C144.760058,15.306459 146.1896,17.3043134 146.75357,19.9821157 C146.808741,20.2438993 146.829583,20.5143022 146.89824,20.771653 C146.979158,21.0707463 146.862686,21.1214776 146.592961,21.1186455 C145.478507,21.1064552 144.364053,21.1134739 143.250826,21.1134739" id="Fill-7"></path>
            </g>
            <path d="M79.9039269,40.9598029 C79.7692432,40.9700897 79.6345596,40.9891085 79.4998759,40.9892281 C73.8325333,40.9906635 68.1651907,40.9858789 62.4979732,41 C62.0905458,41.0009503 62.0002565,40.8977228 62.0011319,40.5183048 C62.0146377,34.8366043 62.015138,29.1549038 62,23.4733229 C61.9990059,23.0784746 62.1156817,23.000725 62.5061017,23.0015623 C68.1734443,23.0140022 73.8407869,23.0149592 79.5080045,23 C79.9246859,22.9989308 80.007597,23.1163925 79.9994685,23.4867197 C79.9743325,24.6313133 79.9740824,25.7769833 79.9994685,26.9214572 C80.0079722,27.3066167 79.9178079,27.4314945 79.4846193,27.4291022 C76.0601282,27.4099638 72.6353871,27.4267099 69.210896,27.4079304 C68.7838351,27.4055381 68.6775388,27.5240763 68.7035501,27.9086377 C68.737565,28.4137708 68.733063,28.9238081 68.7038002,29.4295392 C68.6852922,29.7481929 68.8074704,29.8032157 69.1126032,29.8022588 C72.3098704,29.7917327 75.5072625,29.8039334 78.7045296,29.7855127 C79.1105814,29.7832401 79.2056228,29.8818026 79.1963688,30.2615794 C79.1679814,31.4350001 79.1723583,32.6096169 79.194618,33.7832768 C79.2009958,34.1219062 79.1100812,34.214488 78.7491741,34.2128134 C75.5671636,34.19834 72.384903,34.2106603 69.2027675,34.196187 C68.822727,34.1943927 68.6656586,34.2550374 68.7010491,34.6592156 C68.7451933,35.163033 68.7326878,35.6740272 68.7044255,36.1798779 C68.6866678,36.496857 68.769829,36.5933861 69.1202316,36.5908742 C71.438616,36.5741281 73.7571255,36.5822619 76.0755099,36.5822619 C77.2726562,36.5822619 78.4698024,36.5817835 79.6668236,36.5832189 C79.7542367,36.5833385 79.8501535,36.558339 79.922685,36.6335767 C79.9852123,37.8895315 79.9715813,39.145606 79.9305635,40.4016805 C79.7873761,40.5190225 79.6133003,40.4806262 79.4509797,40.4806262 C74.0128619,40.4830185 68.5747441,40.4826596 63.1366263,40.4815831 C63.0018176,40.4815831 62.8631322,40.5021568 62.7357017,40.4397179 C62.9260346,40.5180656 63.1257465,40.4812243 63.3203312,40.4813439 C68.5782456,40.4834969 73.836285,40.4830185 79.0941993,40.4831381 C79.2457653,40.4831381 79.3972062,40.4842146 79.5487722,40.4845735 C79.8991748,40.4852912 80.0117238,40.6467711 79.9039269,40.9598029" id="Fill-9"></path>
            <path d="M127.007869,31.9761925 C127.009177,29.1204114 127.014411,26.2646303 127,23.4089688 C126.99871,23.0870474 127.078523,22.9969669 127.439643,23 C129.484685,23.017543 131.531035,23.015629 133.576076,23.0022305 C133.908411,23 134,23.0850137 133.998692,23.3885123 C133.989533,29.1290247 133.990841,34.8694174 134,40.6098102 C134,40.9119928 133.905795,41.0009967 133.572151,40.9987238 C131.527109,40.9852057 129.482068,40.9816168 127.437027,41 C127.066747,41.0032697 126.99871,40.901944 127,40.5867218 C127.013102,37.7165853 127.007869,34.8463291 127.007869,31.9761925" id="Fill-10"></path>
            <path d="M11.6062081,28.1508 C12.0562863,28.1176204 12.5063645,28.0844408 12.9564427,28.0512612 C13.4418923,28.2541996 13.7487354,28.6732277 14.1505686,28.9779974 C15.0359766,29.649311 15.9737542,30.2300142 17.0065218,30.6659337 C17.2207496,30.7563029 17.4352273,30.7876727 17.669078,30.7485811 C18.880827,30.5461253 20.0547051,30.2136054 21.2118348,29.8177427 C21.5601736,29.6985375 21.4441856,29.5538745 21.2637044,29.3879765 C20.516657,28.7013399 19.8492264,27.946655 19.2205417,27.1590318 C19.1225519,27.036207 18.9705677,26.9313594 19.0404355,26.7397624 C19.3672765,26.6238148 19.6939925,26.5078672 20.0208336,26.3919196 C20.2488099,26.4294427 20.3186776,26.6268311 20.4229168,26.7793366 C20.940863,27.5360726 21.5468,28.2270527 22.12399,28.9399917 C22.3494666,29.2185796 22.5768179,29.3159466 22.9370305,29.1484802 C24.125032,28.5963717 25.2661634,27.9719921 26.338927,27.2300964 C26.5742775,27.0673355 26.5562794,26.8838221 26.4887864,26.654702 C26.2318131,25.7835868 25.9234701,24.9291218 25.6133774,24.0751395 C25.5581331,23.9229959 25.4883903,23.7768851 25.5171374,23.6100219 C25.8066073,23.4067215 26.0959522,23.2034211 26.3854221,23 C26.7626329,24.1795044 27.0632267,25.3775893 27.3070763,26.6619412 C28.1233665,26.0469725 28.8269184,25.4002721 29.4870998,24.7041039 C29.6250854,24.5585963 29.7811942,24.2191992 29.9460521,24.3464882 C30.1211589,24.4818609 29.8239398,24.7170138 29.7077018,24.8809813 C26.9514883,28.7642001 23.1771305,31.107162 18.3448827,31.816964 C15.6837843,32.2078799 13.0751804,31.9742956 10.5350694,31.1001641 C10.3747111,31.0450257 10.182731,31.0316332 10,30.7826053 C12.0199151,31.1164523 13.9649629,31.3155298 15.9583808,31.0353734 C14.3460483,30.2956495 12.8474541,29.4001625 11.6062081,28.1508" id="Fill-11"></path>
            <path d="M11.9943121,26.9198828 C11.5280555,26.9465885 11.061929,26.9732943 10.5958024,27 C9.56268085,25.7517043 8.63822683,24.4503352 8,23.0091273 C8.43480015,23.0060848 8.86973029,23.0030424 9.30453044,23 C9.71008395,23.3415404 9.82278103,23.8265254 10.0948398,24.2344357 C10.6129604,25.0111556 11.1611076,25.7671418 11.7743773,26.4888726 C11.8836948,26.6175559 12.0308379,26.7341822 11.9943121,26.9198828" id="Fill-12"></path>
            <path d="M23.001751,7.86527577 C23.1906003,7.57685052 23.3794495,7.28842526 23.5682988,7 C24.823493,7.93064033 26.0091179,8.91965376 27,10.0718011 C26.8087165,10.4047276 26.6188422,10.7384308 26.301104,11 C26.1406974,10.9993341 26.0548568,10.9012318 25.9702975,10.8056819 C25.104717,9.82787704 24.1723858,8.90234158 23.1196217,8.0710243 C23.0495399,8.01575852 22.9888109,7.95627566 23.001751,7.86527577" id="Fill-13"></path>
            <path d="M30,15.8562408 C29.7898901,16.2755285 29.4874527,16.6481105 29.1440288,17 C28.9216949,16.9470274 28.8867485,16.7794778 28.8289359,16.6348673 C28.3880072,15.5336754 27.8140521,14.4813177 27.1221708,13.4720002 C27.0443683,13.3584874 26.9707363,13.2461571 27.0117229,13.1091141 C27.2826654,12.7394882 27.5537517,12.3697441 27.824838,12 C28.7563107,13.2067824 29.4684695,14.4970439 30,15.8562408" id="Fill-14"></path>
            <path d="M7,16 C7.31695853,16.0045515 7.63379651,16.009103 7.95075504,16.0135244 C8.08409705,16.1205493 8.08204749,16.2855731 8.1025431,16.4382428 C8.28193994,17.7750785 8.56851675,19.0857757 8.91766545,20.3819081 C8.96468478,20.556425 9.05800007,20.7351032 8.94973504,20.9234046 C8.59033854,21.0464247 8.22202043,20.9841344 7.85671637,20.9849146 C7.40882708,19.3557437 7.11658384,17.6954926 7,16" id="Fill-15"></path>
            <g id="Group-19" transform="translate(30.000000, 18.000000)">
                <path d="M0.113022508,1.25277551 C0.351897106,0.873673469 0.590771704,0.494571429 0.829524116,0.115469388 C1.05300322,1.12126531 1.04029582,2.13942857 0.974192926,3.15808163 C0.935948553,3.74608163 0.891839228,4.33530612 0.742405145,4.90934694 C0.714057878,5.01808163 0.718456592,5.19036735 0.576475884,5.17971429 C0.408347267,5.16697959 0.478115756,4.99114286 0.480926045,4.88938776 C0.513549839,3.7324898 0.403337621,2.58795918 0.197453376,1.45138776 C0.184990354,1.38232653 0.141980707,1.31877551 0.113022508,1.25277551" id="Fill-16"></path>
                <path d="M144.671254,16.3817143 C144.170289,18.2576327 142.848232,19.2825306 140.905466,19.3484082 C140.281093,19.3695918 139.66283,19.3173061 139.064116,19.1392653 C137.552669,18.6903673 136.793891,17.578898 136.460322,16.1144082 C136.312476,15.4635918 136.24283,14.8002857 136.268489,14.2457143 C136.263601,13.2966122 136.352797,12.4781633 136.609389,11.6796735 C137.128682,10.0706939 138.230804,9.19102041 139.89865,9.02032653 C141.331897,8.8737551 142.68328,9.04016327 143.737749,10.1583673 C144.414662,10.8745714 144.690804,11.7743265 144.830096,12.7274694 C145.009711,13.9561224 144.991383,15.1804898 144.671254,16.3817143 Z M151.336527,10.1864082 C150.670611,7.89734694 149.211704,6.25946939 147.016013,5.31857143 C145.560772,4.69493878 144.021222,4.45114286 142.446238,4.37522449 C140.270096,4.27028571 138.100064,4.25877551 135.961801,4.75004082 C132.63955,5.51302041 130.463408,7.47967347 129.682637,10.8631837 C129.174341,13.0615102 129.176785,15.2691429 129.68508,17.467102 C130.385209,20.4972245 132.237556,22.4619184 135.204244,23.3658367 C136.962508,23.9014286 138.773312,24.0069796 140.596334,23.9894694 C142.195756,24.0100408 143.787846,23.9218776 145.349389,23.544 C148.308746,22.8279184 150.428682,21.1395918 151.325531,18.1531837 C152.119743,15.5108571 152.106302,12.8327755 151.336527,10.1864082 L151.336527,10.1864082 Z" id="Fill-18"></path>
            </g>
            <path d="M52.8954198,30.1764451 C52.5710207,30.8013253 51.9624487,30.9604162 51.3221647,30.9912774 C50.5926679,31.0263252 49.8599629,30.9994114 49.1286152,30.9994114 C49.1286152,31.004196 49.1286152,31.0091003 49.1286152,31.013885 C48.3971442,31.013885 47.6654263,31.0040764 46.9343254,31.0191482 C46.6716227,31.024531 46.5692069,30.967952 46.5740192,30.687689 C46.5912941,29.6604165 46.5895666,28.6326656 46.5746361,27.6055128 C46.570811,27.338288 46.6510161,27.2605369 46.9276622,27.2630488 C48.330759,27.2759675 49.7343493,27.2490536 51.1371993,27.2746517 C52.7762226,27.3044364 53.6388599,28.7446273 52.8954198,30.1764451 Z M59.5282632,26.3400826 C59.0322251,24.8461835 57.963769,23.8909207 56.4218556,23.4055141 C55.4110238,23.0873324 54.369714,23.0211841 53.3276639,23.0168779 C49.0352071,22.9992941 44.7425035,23.0154424 40.4499233,23 C40.0522291,22.9985764 39.9984299,23.1276434 40,23.467715 C40.0137306,26.3094606 40.0078077,29.1513258 40.0076843,31.993191 C40.0075609,34.8495298 40.0128668,37.7058687 40,40.5620879 C39.9988001,40.8919921 40.070121,41.0034754 40.436967,40.9996476 C42.3363486,40.9799108 44.2361004,40.9787146 46.1353586,41 C46.5272534,41.0043127 46.5928982,40.8794323 46.5887029,40.5340975 C46.569577,38.9684281 46.593145,37.4022803 46.5711811,35.8366109 C46.566122,35.4790751 46.6858128,35.4130464 47.0236616,35.4153191 C49.1474943,35.4293143 51.271327,35.4221373 53.3951596,35.4224962 C54.0685128,35.4226158 54.7396449,35.3807498 55.401029,35.2601756 C57.5119054,34.8754868 59.0137162,33.7663962 59.6238924,31.7260858 C60.1596629,29.9344595 60.11882,28.118551 59.5282632,26.3400826 L59.5282632,26.3400826 Z" id="Fill-20"></path>
            <path d="M45.9958627,36.0025429 C45.9958627,37.5697102 45.9906476,39.1367565 46,40.7038027 C46.0019267,41.0305078 45.7982969,40.9992662 45.5894519,40.9991451 C44.0165658,40.9985396 42.4435584,40.9989029 40.870551,40.9989029 C40.5868761,40.9989029 40.3033224,40.9989029 40,40.9989029 C40.0742236,40.7921996 40.2082385,40.9155919 40.2965307,40.9153497 C42.0458798,40.909053 43.7953503,40.9026351 45.5445782,40.9178926 C45.893502,40.9209199 45.9136346,40.7528448 45.9121792,40.4846269 C45.9046598,38.9897513 45.9086621,37.4948756 45.9086621,36 C45.9376481,36.0008476 45.9667554,36.0016953 45.9958627,36.0025429" id="Fill-21"></path>
            <path d="M53.9949246,35.0220988 C51.6633243,35.0220988 49.3316003,35.0220988 47,35.0220988 C47,35.0073256 47.0001238,34.9926744 47.0001238,34.9779012 C49.3333333,34.9779012 51.6666667,34.9779012 54,34.9779012 C53.9982669,34.9926744 53.9965339,35.0073256 53.9949246,35.0220988" id="Fill-22"></path>
            <path d="M132.950727,41 C132.950727,35.3356132 132.950727,29.6713465 132.950727,24.0070797 C132.975189,24.0046798 132.998428,24.0023999 133.022891,24 C133.029006,24.1108758 133.040014,24.2217517 133.040014,24.3325075 C133.040014,29.737584 133.041238,35.1426605 133.037568,40.547737 C133.037568,40.7002513 133.096278,40.8711249 132.950727,41 L132.950727,41" id="Fill-23"></path>
            <path d="M132.975031,40.9102001 C133.035936,41.0481652 132.983913,41.0900431 132.835457,41.0897999 C130.916951,41.0867466 128.999713,41.0878454 127,41.0878454 C127.229662,40.953421 127.395882,41.0023803 127.551951,41.002014 C129.165933,40.9974966 130.779914,40.9992059 132.393896,40.9992059 C132.591837,40.9992059 132.794854,41.0199617 132.975031,40.9103221 L132.975031,40.9102001" id="Fill-24"></path>
            <path d="M20.1331122,11 C21.1639696,12.3474441 22.1166951,13.7473376 23,15.1942226 C22.6301136,15.4920128 22.2621034,15.7924654 21.8290951,16 C20.9467283,14.5595048 20.043455,13.1329872 19,11.7995208 C19.3776594,11.5330138 19.7554528,11.2665069 20.1331122,11" id="Fill-25"></path>
            <path d="M14.8196223,20 C14.1446345,18.4966808 13.5222889,16.9691861 13,15.3962156 C13.3771276,15.2641002 13.7542551,15.1319847 14.1313827,15 C14.7542146,16.5188699 15.3771681,18.0377398 16,19.5567404 C15.6210488,19.7489676 15.225928,19.891668 14.8196223,20" id="Fill-26"></path>
            <path d="M18.0566467,25 C17.3702809,23.8462446 16.6631388,22.7056345 16.063288,21.4971631 C16.039848,21.4498624 16.0209895,21.4000899 16,21.3515533 C16.3477643,21.2343689 16.6956352,21.1171844 17.0433995,21 C17.6462336,22.2454356 18.3052172,23.45739 19,24.647885 C18.6854779,24.7652941 18.3710623,24.8825909 18.0566467,25" id="Fill-27"></path>
            <g id="Group-31" transform="translate(4.000000, 0.000000)">
                <path d="M20.1076354,17.2255138 C20.7915801,18.5287403 21.3688066,19.8794917 21.9066519,21.2481105 C21.6272155,21.4965525 21.323105,21.7103536 21.0001547,21.8981436 C20.4139337,20.5548066 19.7890608,19.2301878 19.0760663,17.9485967 C19.4037569,17.6844751 19.738011,17.4297127 20.1076354,17.2255138" id="Fill-28"></path>
                <path d="M13.5629392,3.42385635 C13.5174807,3.53883978 13.5011934,3.69150276 13.3344309,3.71897238 C13.3344309,3.71909392 13.3343094,3.71909392 13.3341878,3.71921547 C13.3925304,3.97628729 13.2390166,4.1181326 13.0502541,4.24065193 C12.9023315,4.71249724 12.5124088,4.99460773 12.1849613,5.31998895 C11.8857127,5.61741436 11.583547,5.92018785 11.1881547,6.09874033 C11.0299006,6.30840884 10.8271602,6.45304972 10.5714254,6.52014365 C9.78088398,7.11426519 8.87074033,7.46942541 7.96132597,7.82616575 C7.87891713,7.85849724 7.82264088,7.81133702 7.76077348,7.77475138 C7.76077348,7.77475138 7.76065193,7.77475138 7.76065193,7.77462983 C7.63375691,8.05807735 7.37862983,8.02331492 7.13845304,8.02562431 C6.22648619,8.40302762 5.2740442,8.52372376 4.29474033,8.47328177 C4.06756906,8.58996685 3.85607735,8.57416575 3.6639116,8.3978011 C2.92223204,8.51485083 2.30927072,8.21900552 1.80181215,7.73160221 C1.26761326,7.21843094 1.24220994,6.54445304 1.44361326,5.8801989 C1.8120221,4.6658232 2.68874033,3.83055249 3.66573481,3.10236464 C5.49270718,1.74030939 7.53785635,0.88838674 9.81005525,0.635447514 C10.6754696,0.53918232 11.547326,0.560088398 12.378221,0.882674033 C13.5427624,1.33495028 13.9996575,2.31911602 13.5629392,3.42385635 Z M13.8930608,0.502110497 C13.2390166,0.208331492 12.5469282,0.0751160221 11.8357569,0.0789228363 C8.25948066,0.0982099448 5.09682873,1.28888398 2.33260773,3.52850829 C1.37749171,4.30227624 0.577469613,5.22858564 0.194718232,6.44101657 C-0.260475138,7.88256354 0.263027624,9.01161326 1.65546961,9.58324862 C2.03737017,9.7400442 2.43531492,9.84445304 2.84662983,9.88748066 C3.01229834,9.90486188 3.18343646,9.89671823 3.17091713,10.1373812 C3.45181215,10.0166851 3.73623204,10.1062652 4.01870718,10.1220663 C5.16100552,10.0508398 6.28896133,9.86657459 7.41570166,9.67064088 C7.69902762,9.53693923 7.98356906,9.40846409 8.30311602,9.39339227 C9.4680221,8.8999116 10.6617348,8.46647514 11.7196796,7.75032044 C11.9632597,7.55864088 12.2124309,7.37534807 12.4764309,7.21296133 C13.3451271,6.59428729 14.0790276,5.84288398 14.6894365,4.96944751 C14.7898343,4.72975691 14.9748287,4.53904972 15.0753481,4.29960221 C15.0108066,3.98734807 15.2214475,3.74461878 15.293768,3.46737017 C15.6417569,2.13302762 15.1476685,1.06548066 13.8930608,0.502110497 L13.8930608,0.502110497 Z" id="Fill-30"></path>
            </g>
            <path d="M7,8.83063235 C7.2204406,9.02935411 7.46305075,9.04715826 7.72364752,8.91568143 C8.00948132,7.56886561 8.53471835,6.29586855 9,5 C8.08714445,6.16055697 7.44102064,7.44451043 7,8.83063235" id="Fill-32"></path>
            <path d="M13,3.01821009 C14.261705,3.2683401 15.5132496,3.54703945 16.7215273,4 C16.898819,3.88050661 17.0430041,3.74216457 16.9882069,3.49144184 L16.9882069,3.49120475 C15.6809518,3.14943944 14.3596549,2.93416167 13,3.01821009" id="Fill-33"></path>
            <path d="M12,4 C12.7809362,4.68177557 13.6141589,5.30388751 14.3683293,6 C14.6302598,5.93912324 14.8379119,5.8078853 15,5.61764544 C14.0712922,4.97689551 13.1158187,4.37551696 12,4" id="Fill-34"></path>
            <path d="M11.1768537,5 C11.1181952,5.00859518 11.0595368,5.01719036 11.0008783,5.02578554 C10.9871087,6.02270882 11.1374727,7.01139015 11.2951345,7.99971824 C11.5672217,7.99748114 11.8562454,8.03115541 12,7.75658058 C11.725572,6.8374849 11.4512817,5.91874245 11.1768537,5" id="Fill-35"></path>
            <path d="M94.8954198,30.1764451 C94.5708974,30.8013253 93.9623253,30.9604162 93.3220413,30.9912774 C92.5925445,31.0263252 91.8598395,30.9994114 91.1286152,30.9994114 C91.1286152,31.004196 91.1286152,31.0091003 91.1286152,31.013885 C90.3971442,31.013885 89.6654263,31.0040764 88.9343254,31.0191482 C88.6716227,31.024531 88.5692069,30.967952 88.5738958,30.687689 C88.5912941,29.6604165 88.5894432,28.6326656 88.5746361,27.6055128 C88.5706876,27.338288 88.6510161,27.2605369 88.9276622,27.2630488 C90.330759,27.2759675 91.7343493,27.2490536 93.1370759,27.2746517 C94.7762226,27.3044364 95.6388599,28.7446273 94.8954198,30.1764451 Z M101.528263,26.3400826 C101.032225,24.8461835 99.963769,23.8909207 98.4218556,23.4055141 C97.4110238,23.0873324 96.369714,23.0211841 95.3276639,23.0168779 C91.0352071,22.9992941 86.7425035,23.0154424 82.4499233,23 C82.0522291,22.9985764 81.9984299,23.1276434 82,23.467715 C82.0137306,26.3094606 82.0078077,29.1513258 82.0076843,31.993191 C82.0074376,34.8495298 82.0128668,37.7058687 82,40.5620879 C81.9986767,40.8919921 82.070121,41.0034754 82.436967,40.9996476 C84.3363486,40.9799108 86.2361004,40.9787146 88.1353586,41 C88.5272534,41.0043127 88.5928982,40.8794323 88.5887029,40.5340975 C88.569577,38.9684281 88.593145,37.4022803 88.5710577,35.8366109 C88.566122,35.4790751 88.6858128,35.4130464 89.0236616,35.4153191 C91.1473709,35.4293143 93.271327,35.4221373 95.3951596,35.4224962 C96.0685128,35.4226158 96.7396449,35.3807498 97.401029,35.2601756 C99.5119054,34.8754868 101.013716,33.7663962 101.623892,31.7260858 C102.159663,29.9344595 102.11882,28.118551 101.528263,26.3400826 L101.528263,26.3400826 Z" id="Fill-36"></path>
            <g id="Group-40" transform="translate(0.000000, 5.000000)">
                <path d="M95.8932519,29.856747 C93.5926718,29.856747 91.2922137,29.856747 88.9917557,29.856747 C88.9917557,29.8421687 88.9917557,29.8277108 88.9918779,29.8131325 C91.2939237,29.8131325 93.5960916,29.8131325 95.8981374,29.8131325 C95.8965496,29.8277108 95.8948397,29.8421687 95.8932519,29.856747" id="Fill-37"></path>
                <path d="M27.2050076,5.44180723 C28.2064122,3.7239759 28.5499847,1.93445783 27.808,0.00975903614 C28.458626,0.446987952 28.8580153,1.05698795 29.1152366,1.75650602 C29.5970687,3.06698795 29.4034809,4.36638554 28.972458,5.64493976 C28.8058626,6.13891566 28.5709924,6.61060241 28.3672672,7.09240964 C28.3257405,7.56192771 27.9411298,7.85879518 27.7645191,8.26048193 C26.6768855,9.72108434 25.3941985,10.9898795 23.9145038,12.0648193 C23.5509008,12.3066265 23.2170992,12.5893976 22.848855,12.8254217 C20.9481527,14.0542169 18.9319084,15.0533735 16.7870534,15.7979518 C16.3908397,15.9186747 16.0019542,16.0607229 15.6064733,16.1846988 C13.7239695,16.7419277 11.8155725,17.1586747 9.84256489,17.2275904 C9.65019847,17.2343373 9.46454962,17.2873494 9.27316031,17.3033735 C8.86741985,17.293253 8.44861069,17.4168675 8.06509924,17.1872289 C6.28629008,17.0901205 4.53508397,16.8621687 2.93447328,16.0185542 C1.60207634,15.3161446 0.545832061,14.359759 0.135450382,12.8583133 C0.0403053435,12.51 -0.0362748092,12.1548193 0.0181984733,11.7866265 C0.0572824427,11.7895181 0.105770992,11.7849398 0.108946565,11.7945783 C0.626076336,13.3807229 1.8569771,14.2318072 3.33948092,14.7885542 C4.65025954,15.2808434 6.02503817,15.4509639 7.42546565,15.4204819 C7.75328244,15.2063855 8.13300763,15.3568675 8.47914504,15.2726506 C10.5512061,15.1820482 12.5617099,14.7589157 14.5418015,14.1744578 C14.9654962,14.0892771 15.3512061,13.8933735 15.7592672,13.7622892 C17.8580763,13.0272289 19.8362137,12.0555422 21.6798779,10.8209639 C22.0589924,10.6051807 22.3898626,10.3198795 22.7562748,10.0856627 C24.1720916,9.01409639 25.4866565,7.84349398 26.4935573,6.37156627 C26.7550534,6.07987952 26.8663206,5.6760241 27.2050076,5.44180723" id="Fill-39"></path>
            </g>
            <path d="M6.80008492,15.8714889 C5.58844279,15.7581294 4.39953826,15.5467768 3.3201202,14.9345092 C2.02345923,14.1989316 1.09999144,13.1731536 1.00718744,11.5823412 C0.946759801,10.5454791 1.27361278,9.60031231 1.75221451,8.68537474 C1.90334539,8.79079912 1.84440064,8.87909362 1.82586455,8.95995677 C1.34886928,11.0385932 2.21351589,12.7135436 4.17278014,13.488797 C4.98812076,13.8113679 5.83027692,13.9916096 6.71148243,13.9257351 C6.97790777,13.7313865 7.28165242,13.8107381 7.57316326,13.8024251 C9.22571708,13.7791234 10.8189554,13.4064224 12.396747,12.9470643 C12.7750068,12.8405063 13.1452342,12.7078756 13.5164502,12.5782679 C15.197426,11.9730538 16.7781834,11.1656818 18.2477242,10.1352435 C18.5590069,9.92338705 18.8648523,9.70334355 19.1631597,9.47271983 C20.277302,8.58045417 21.3098856,7.6071994 22.1096559,6.40193541 C22.3455585,6.14146034 22.4308245,5.7685074 22.7213467,5.54884177 C23.2696441,4.54019363 23.5120961,3.48229705 23.1831424,2.34580452 C22.8513465,1.19973941 22.0311865,0.512906453 21.0076238,0.0145022699 C21.3383076,-0.0424294184 21.6230219,0.079117217 21.902546,0.190587447 C23.3788835,0.77980523 24.5444325,1.69436494 24.9089755,3.36465503 C25.1265892,4.36158935 24.9289945,5.33182119 24.5808868,6.27346124 C24.5177406,6.44413035 24.4473034,6.61202845 24.3803264,6.78131205 C24.3971324,7.20326151 24.0538441,7.46335872 23.9308881,7.82283447 C23.0342359,9.14548858 21.9273844,10.262584 20.6953526,11.2573771 C20.3268552,11.5458142 19.9479776,11.8195146 19.5663814,12.0898141 C17.9277914,13.1876385 16.1767492,14.0552169 14.339576,14.7478438 C13.9450045,14.904154 13.5258418,14.9814905 13.1318882,15.1412015 C11.3781273,15.6588768 9.59569735,15.9852263 7.76371422,15.9877454 C7.43908558,15.9766614 7.10259383,16.0694903 6.80008492,15.8714889" id="Fill-41"></path>
            <path d="M30.0806259,19.7677628 C29.039068,21.2130382 27.8065498,22.4645874 26.4340828,23.5739292 C26.2450612,23.929697 25.8768324,24.07153 25.5968138,24.3191454 C23.9583836,25.4887382 22.1905463,26.4049775 20.3422537,27.164165 C20.0094059,27.3037527 19.6597158,27.3959379 19.3317147,27.5498711 C17.4080557,28.2393271 15.4354449,28.7022493 13.4080663,28.9154356 C12.9734377,28.9642102 12.5379608,29.0867081 12.1064825,28.8993437 C10.9475131,28.9260388 9.79169404,28.9075768 8.64605308,28.689775 C6.87482309,28.3528435 5.24863088,27.6877124 3.8630778,26.4719646 C3.50999501,26.1622271 3.19241437,25.8213038 3,25.3588805 C5.36204388,27.0682374 8.02724945,27.5336545 10.8244067,27.481886 C11.221231,27.2689493 11.6530728,27.2932742 12.0799468,27.2849164 C14.1516728,27.075722 16.1606339,26.5758757 18.1303366,25.8966487 C18.5323712,25.7659177 18.925197,25.6081175 19.3160841,25.4453276 C21.287362,24.6668049 23.1455904,23.665366 24.891254,22.442882 C25.2131967,22.2519001 25.4884898,21.9916857 25.8023143,21.7884789 C27.2359709,20.6462049 28.5488234,19.3815577 29.5842017,17.8356145 C29.863251,17.4610104 30.0456084,17.015677 30.378335,16.6802424 C31.1971866,15.2498114 31.5529351,13.6881505 31.5941321,12 C31.8196253,12.1360949 31.8164749,12.3434182 31.8508866,12.5173103 C32.2212963,14.3912036 31.8729391,16.1638053 31.1229108,17.8772787 C31.015435,18.1226487 30.9019008,18.3652743 30.7911535,18.6091474 C30.6710763,19.0711965 30.4367379,19.4590232 30.0806259,19.7677628" id="Fill-42"></path>
        </g>
    </g>
</svg>